<svg width="35" height="35" viewBox="0 0 35 35" fill="none" xmlns="http://www.w3.org/2000/svg">
<path d="M4.375 16.0415H8.75C9.52355 16.0415 10.2654 16.3488 10.8124 16.8958C11.3594 17.4428 11.6667 18.1846 11.6667 18.9582V23.3332C11.6667 24.1067 11.3594 24.8486 10.8124 25.3956C10.2654 25.9425 9.52355 26.2498 8.75 26.2498H7.29167C6.51812 26.2498 5.77625 25.9425 5.22927 25.3956C4.68229 24.8486 4.375 24.1067 4.375 23.3332V16.0415ZM4.375 16.0415C4.375 14.3179 4.71449 12.6112 5.37408 11.0188C6.03367 9.42639 7.00045 7.9795 8.21922 6.76073C9.43799 5.54196 10.8849 4.57518 12.4773 3.91559C14.0697 3.25599 15.7764 2.9165 17.5 2.9165C19.2236 2.9165 20.9303 3.25599 22.5227 3.91559C24.1151 4.57518 25.562 5.54196 26.7808 6.76073C27.9995 7.9795 28.9663 9.42639 29.6259 11.0188C30.2855 12.6112 30.625 14.3179 30.625 16.0415M30.625 16.0415V23.3332C30.625 24.1067 30.3177 24.8486 29.7707 25.3956C29.2237 25.9425 28.4819 26.2498 27.7083 26.2498H26.25C25.4765 26.2498 24.7346 25.9425 24.1876 25.3956C23.6406 24.8486 23.3333 24.1067 23.3333 23.3332V18.9582C23.3333 18.1846 23.6406 17.4428 24.1876 16.8958C24.7346 16.3488 25.4765 16.0415 26.25 16.0415H30.625Z" stroke="#00579F" stroke-width="2.5" stroke-linecap="round" stroke-linejoin="round"/>
<path d="M30.625 23.3335V26.2502C30.625 27.7973 30.0104 29.281 28.9165 30.375C27.8225 31.4689 26.3388 32.0835 24.7917 32.0835H17.5" stroke="#00579F" stroke-width="2.5" stroke-linecap="round" stroke-linejoin="round"/>
</svg>
