<svg width="35" height="35" viewBox="0 0 35 35" fill="none" xmlns="http://www.w3.org/2000/svg">
<path d="M2.98747 27.0753C2.8927 27.5016 2.89488 27.9438 2.99385 28.3691C3.09282 28.7945 3.28605 29.1922 3.55929 29.5329C3.83253 29.8736 4.17879 30.1486 4.57252 30.3376C4.96625 30.5266 5.3974 30.6248 5.83413 30.6248H29.1675C29.6042 30.6248 30.0354 30.5266 30.4291 30.3376C30.8228 30.1486 31.1691 29.8736 31.4423 29.5329C31.7155 29.1922 31.9088 28.7945 32.0078 28.3691C32.1067 27.9438 32.1089 27.5016 32.0141 27.0753L29.0975 13.9503C28.9535 13.3026 28.593 12.7233 28.0755 12.3081C27.5579 11.8929 26.9143 11.6666 26.2508 11.6665H8.7508C8.08731 11.6666 7.44368 11.8929 6.92615 12.3081C6.40862 12.7233 6.04811 13.3026 5.90413 13.9503L2.98747 27.0753Z" stroke="#00579F" stroke-width="2.25" stroke-linecap="round" stroke-linejoin="round"/>
<path d="M11.666 16.0415V8.74984C11.666 7.20274 12.2806 5.71901 13.3746 4.62505C14.4685 3.53109 15.9523 2.9165 17.4993 2.9165C19.0464 2.9165 20.5302 3.53109 21.6241 4.62505C22.7181 5.71901 23.3327 7.20274 23.3327 8.74984V16.0415" stroke="#00579F" stroke-width="2.25" stroke-linecap="round" stroke-linejoin="round"/>
</svg>
