<svg width="35" height="35" viewBox="0 0 35 35" fill="none" xmlns="http://www.w3.org/2000/svg">
<path d="M20.416 26.2502V8.75016C20.416 7.97661 20.1087 7.23475 19.5617 6.68777C19.0148 6.14079 18.2729 5.8335 17.4993 5.8335H5.83268C5.05913 5.8335 4.31727 6.14079 3.77029 6.68777C3.22331 7.23475 2.91602 7.97661 2.91602 8.75016V24.7918C2.91602 25.1786 3.06966 25.5495 3.34315 25.823C3.61664 26.0965 3.98757 26.2502 4.37435 26.2502H7.29102" stroke="#00579F" stroke-width="2.5" stroke-linecap="round" stroke-linejoin="round"/>
<path d="M21.875 26.25H13.125" stroke="#00579F" stroke-width="2.5" stroke-linecap="round" stroke-linejoin="round"/>
<path d="M27.7077 26.2498H30.6243C31.0111 26.2498 31.3821 26.0962 31.6555 25.8227C31.929 25.5492 32.0827 25.1783 32.0827 24.7915V19.4686C32.0821 19.1376 31.969 18.8167 31.7619 18.5586L26.6868 12.2148C26.5505 12.044 26.3774 11.9061 26.1805 11.8112C25.9836 11.7163 25.7679 11.6668 25.5493 11.6665H20.416" stroke="#00579F" stroke-width="2.5" stroke-linecap="round" stroke-linejoin="round"/>
<path d="M24.7917 29.1668C26.4025 29.1668 27.7083 27.861 27.7083 26.2502C27.7083 24.6393 26.4025 23.3335 24.7917 23.3335C23.1808 23.3335 21.875 24.6393 21.875 26.2502C21.875 27.861 23.1808 29.1668 24.7917 29.1668Z" stroke="#00579F" stroke-width="2.5" stroke-linecap="round" stroke-linejoin="round"/>
<path d="M10.2077 29.1668C11.8185 29.1668 13.1243 27.861 13.1243 26.2502C13.1243 24.6393 11.8185 23.3335 10.2077 23.3335C8.59685 23.3335 7.29102 24.6393 7.29102 26.2502C7.29102 27.861 8.59685 29.1668 10.2077 29.1668Z" stroke="#00579F" stroke-width="2.5" stroke-linecap="round" stroke-linejoin="round"/>
</svg>
