<svg width="35" height="35" viewBox="0 0 35 35" fill="none" xmlns="http://www.w3.org/2000/svg">
<path d="M32.0827 24.7917C32.0827 25.5652 31.7754 26.3071 31.2284 26.8541C30.6814 27.401 29.9396 27.7083 29.166 27.7083H9.95685C9.18336 27.7085 8.44162 28.0159 7.89477 28.5629L4.68352 31.7742C4.53871 31.9189 4.35423 32.0175 4.1534 32.0575C3.95256 32.0974 3.74439 32.0769 3.55521 31.9986C3.36603 31.9202 3.20433 31.7875 3.09056 31.6173C2.97678 31.447 2.91604 31.2468 2.91602 31.0421V7.29167C2.91602 6.51812 3.22331 5.77625 3.77029 5.22927C4.31727 4.68229 5.05913 4.375 5.83268 4.375H29.166C29.9396 4.375 30.6814 4.68229 31.2284 5.22927C31.7754 5.77625 32.0827 6.51812 32.0827 7.29167V24.7917Z" stroke="#00579F" stroke-width="2" stroke-linecap="round" stroke-linejoin="round"/>
<path d="M17.5 16.0415H17.5146" stroke="#00579F" stroke-width="2" stroke-linecap="round" stroke-linejoin="round"/>
<path d="M23.334 16.0415H23.3486" stroke="#00579F" stroke-width="2" stroke-linecap="round" stroke-linejoin="round"/>
<path d="M11.666 16.0415H11.6806" stroke="#00579F" stroke-width="2" stroke-linecap="round" stroke-linejoin="round"/>
</svg>
