<svg width="35" height="35" viewBox="0 0 35 35" fill="none" xmlns="http://www.w3.org/2000/svg">
<path d="M17.4993 32.0832C25.5535 32.0832 32.0827 25.554 32.0827 17.4998C32.0827 9.44568 25.5535 2.9165 17.4993 2.9165C9.4452 2.9165 2.91602 9.44568 2.91602 17.4998C2.91602 25.554 9.4452 32.0832 17.4993 32.0832Z" stroke="#00579F" stroke-width="2" stroke-linecap="round" stroke-linejoin="round"/>
<path d="M16.1155 11.1064C16.2119 10.8109 16.4001 10.5538 16.6529 10.3728C16.9056 10.1918 17.2095 10.0963 17.5204 10.1002C17.8312 10.1041 18.1327 10.2073 18.3807 10.3946C18.6288 10.5819 18.8106 10.8435 18.8995 11.1414L19.9743 13.2589C20.0789 13.4648 20.2308 13.6428 20.4177 13.7785C20.6045 13.9141 20.8209 14.0035 21.0491 14.0391L23.432 14.4125C23.7388 14.4137 24.0375 14.5116 24.2854 14.6924C24.5334 14.8732 24.718 15.1275 24.813 15.4193C24.908 15.7111 24.9085 16.0254 24.8145 16.3175C24.7205 16.6096 24.5368 16.8646 24.2895 17.0462L22.5803 18.7496C22.4167 18.9125 22.2941 19.1119 22.2226 19.3315C22.1511 19.551 22.1327 19.7844 22.1691 20.0125L22.5468 22.3648C22.6507 22.6596 22.6571 22.98 22.5651 23.2788C22.4731 23.5775 22.2875 23.8388 22.0357 24.0241C21.7839 24.2094 21.4793 24.3088 21.1667 24.3078C20.8541 24.3068 20.5501 24.2054 20.2995 24.0185L18.163 22.9248C17.9572 22.8193 17.7293 22.7643 17.498 22.7643C17.2668 22.7643 17.0388 22.8193 16.833 22.9248L14.6966 24.0185C14.446 24.2039 14.1426 24.304 13.831 24.3044C13.5193 24.3048 13.2157 24.2052 12.9647 24.0205C12.7137 23.8357 12.5285 23.5754 12.4363 23.2777C12.3441 22.98 12.3496 22.6605 12.4522 22.3662L12.8284 20.0139C12.865 19.7857 12.8468 19.552 12.7753 19.3321C12.7038 19.1123 12.581 18.9126 12.4172 18.7496L10.7314 17.0696C10.4756 16.8924 10.2833 16.6381 10.1824 16.3439C10.0815 16.0496 10.0773 15.7308 10.1705 15.434C10.2636 15.1372 10.4493 14.878 10.7003 14.6942C10.9513 14.5104 11.2544 14.4117 11.5655 14.4125L13.947 14.0391C14.1751 14.0035 14.3915 13.9141 14.5783 13.7785C14.7652 13.6428 14.9172 13.4648 15.0218 13.2589L16.1155 11.1064Z" stroke="#00579F" stroke-width="2" stroke-linecap="round" stroke-linejoin="round"/>
</svg>
