<svg width="60" height="60" viewBox="0 0 60 60" fill="none" xmlns="http://www.w3.org/2000/svg">
<path d="M36.7499 15.7504C36.2919 16.2178 36.0353 16.8461 36.0353 17.5004C36.0353 18.1548 36.2919 18.7831 36.7499 19.2504L40.7499 23.2504C41.2173 23.7085 41.8456 23.9651 42.4999 23.9651C43.1543 23.9651 43.7826 23.7085 44.2499 23.2504L52.0149 15.4879C52.8149 14.6829 54.1724 14.9379 54.4724 16.0329C55.2278 18.7801 55.1851 21.6856 54.3494 24.4094C53.5137 27.1332 51.9195 29.5627 49.7534 31.4135C47.5873 33.2644 44.9389 34.46 42.1181 34.8606C39.2972 35.2612 36.4207 34.8501 33.8249 33.6754L14.0499 53.4504C13.0554 54.4447 11.7066 55.0031 10.3003 55.0029C8.89402 55.0026 7.54543 54.4437 6.5512 53.4492C5.55697 52.4546 4.99854 51.1058 4.99878 49.6996C4.99901 48.2933 5.55788 46.9447 6.55245 45.9504L26.3274 26.1754C25.1528 23.5797 24.7417 20.7031 25.1423 17.8823C25.5429 15.0615 26.7385 12.4131 28.5893 10.247C30.4402 8.08089 32.8697 6.48672 35.5935 5.651C38.3173 4.81529 41.2228 4.77261 43.9699 5.52794C45.0649 5.82794 45.3199 7.18294 44.5174 7.98794L36.7499 15.7504Z" stroke="black" stroke-width="2.5" stroke-linecap="round" stroke-linejoin="round"/>
</svg>
