<svg width="63" height="63" viewBox="0 0 63 63" fill="none" xmlns="http://www.w3.org/2000/svg">
<path d="M26.25 28.875V44.625" stroke="black" stroke-width="2" stroke-linecap="round" stroke-linejoin="round"/>
<path d="M36.75 28.875V44.625" stroke="black" stroke-width="2" stroke-linecap="round" stroke-linejoin="round"/>
<path d="M49.875 15.75V52.5C49.875 53.8924 49.3219 55.2277 48.3373 56.2123C47.3527 57.1969 46.0174 57.75 44.625 57.75H18.375C16.9826 57.75 15.6473 57.1969 14.6627 56.2123C13.6781 55.2277 13.125 53.8924 13.125 52.5V15.75" stroke="black" stroke-width="2" stroke-linecap="round" stroke-linejoin="round"/>
<path d="M7.875 15.75H55.125" stroke="black" stroke-width="2" stroke-linecap="round" stroke-linejoin="round"/>
<path d="M21 15.75V10.5C21 9.10761 21.5531 7.77226 22.5377 6.78769C23.5223 5.80312 24.8576 5.25 26.25 5.25H36.75C38.1424 5.25 39.4777 5.80312 40.4623 6.78769C41.4469 7.77226 42 9.10761 42 10.5V15.75" stroke="black" stroke-width="2" stroke-linecap="round" stroke-linejoin="round"/>
</svg>
